<?xml version="1.0" encoding="utf-8"?>
<!-- Generator: Adobe Illustrator 21.0.0, SVG Export Plug-In . SVG Version: 6.00 Build 0)  -->
<svg version="1.1" id="Layer_1" xmlns="http://www.w3.org/2000/svg"  x="0px" y="0px"
	 width="483.491px" height="45.934px" viewBox="0 0 483.491 45.934" enable-background="new 0 0 483.491 45.934"
	 xml:space="preserve">
<g>
	<g>
		<polygon fill="#41B649" points="14.884,14.956 14.884,25.397 7.729,14.956 0,14.956 0,35.658 7.705,35.658 7.705,25.209 
			14.857,35.658 22.589,35.658 22.589,14.956 		"/>
		<path fill="#41B649" d="M105.284,27.914c2.737-0.764,4.504-2.74,4.504-5.914c0-5.333-4.231-7.044-9.808-7.044
			c-2.707,0-9.628,0-9.628,0v20.703h7.707v-6.467l4.6,6.467h8.856L105.284,27.914z M101.499,23.695
			c-0.45,0.366-1.316,0.545-2.033,0.545h-1.653v-4.079h1.621c0.779,0,1.665,0.188,2.095,0.558c0.428,0.374,0.629,0.878,0.629,1.521
			C102.159,22.849,101.948,23.336,101.499,23.695z"/>
		<path fill="#41B649" d="M71.571,14.956h15.622v5.39h-7.991v2.435h7.362v5.092h-7.362v2.395h8.233v5.392H71.571V14.956z"/>
		<path fill="#41B649" d="M41.138,14.956H32.35l-8.108,20.703h8.57l0.749-2.706h6.367l0.75,2.706h8.569L41.138,14.956z
			 M34.826,28.167l1.811-6.829h0.213l1.814,6.829H34.826z"/>
		<polygon fill="#41B649" points="61.515,14.956 57.716,27.435 57.502,27.435 53.707,14.956 45.303,14.956 53.971,35.658 
			61.247,35.658 69.919,14.956 		"/>
	</g>
</g>
<g>
	<path fill="#FFFFFF" d="M169.815,35.621v4.185h-42.147v-4.185H169.815z M148.742,17.387c-0.498,1.146-2.541,2.89-5.878,5.032
		c-2.89,1.843-6.078,3.786-10.213,6.078l-2.441-3.886c3.985-2.192,7.124-3.986,10.462-6.228c4.534-3.089,5.58-5.231,5.58-10.113
		V3.238h4.982V8.27c0,4.882,0.747,6.925,6.128,10.462c3.139,2.043,6.028,3.687,9.964,5.829l-2.392,3.836
		c-3.687-2.093-7.323-4.185-10.312-6.078c-3.238-2.043-5.281-3.787-5.829-4.933H148.742z"/>
	<path fill="#FFFFFF" d="M175.297,33.827V4.135h21.722v29.692H175.297z M180.18,29.593h11.957V8.37H180.18V29.593z M216.05,20.875
		h-7.074v25.059h-4.933V0h4.933v16.59h7.074V20.875z"/>
	<path fill="#FFFFFF" d="M260.49,35.621v4.185h-42.147v-4.185H260.49z M255.06,28.049h-31.038V3.438h30.34v4.185h-25.408V13.7
		h25.059v4.085h-25.059v6.078h26.106V28.049z"/>
	<path fill="#FFFFFF" d="M305.828,35.621v4.185H263.68v-4.185H305.828z M284.754,17.387c-0.498,1.146-2.541,2.89-5.879,5.032
		c-2.89,1.843-6.078,3.786-10.213,6.078l-2.441-3.886c3.986-2.192,7.125-3.986,10.463-6.228c4.533-3.089,5.579-5.231,5.579-10.113
		V3.238h4.982V8.27c0,4.882,0.747,6.925,6.128,10.462c3.139,2.043,6.028,3.687,9.964,5.829l-2.392,3.836
		c-3.687-2.093-7.323-4.185-10.312-6.078c-3.238-2.043-5.281-3.787-5.829-4.933H284.754z"/>
	<path fill="#FFFFFF" d="M344.689,17.636H319.58v6.028h26.155v4.186h-13.202v7.771h18.633v4.185h-42.148v-4.185h18.633V27.85
		h-12.953V3.338h30.341v4.185H319.58v6.028h25.109V17.636z"/>
	<path fill="#FFFFFF" d="M387.834,45.934V20.476h-8.868v1.146c0,8.768-4.832,13.252-11.558,13.252
		c-6.727,0-11.559-4.484-11.559-13.252V16.44c0-8.818,4.832-13.302,11.559-13.302c6.626,0,11.458,4.434,11.558,13.003h8.868V0h4.933
		v45.934H387.834z M374.233,20.924v-3.787c0-7.024-3.238-9.516-6.825-9.516c-3.588,0-6.826,2.491-6.826,9.516v3.787
		c0,7.025,3.238,9.515,6.826,9.515C370.995,30.439,374.233,27.949,374.233,20.924z"/>
	<path fill="#FFFFFF" d="M411.101,17.985c-0.199,0.797-1.295,2.042-2.143,2.989c-1.295,1.495-4.135,4.185-6.925,6.625l-3.139-3.337
		c3.089-2.74,5.979-5.431,7.274-7.075c2.142-2.64,2.44-4.284,2.44-7.423V2.391h4.783v7.075c0,2.989,0.349,5.032,2.641,7.672
		c1.594,1.843,3.886,3.787,6.277,5.729l-3.089,3.288c-2.242-1.893-4.235-3.786-5.58-5.131c-1.246-1.246-2.242-2.292-2.491-3.039
		H411.101z M413.792,41.151h26.056v4.284h-30.988V30.29h4.933V41.151z M429.983,31.536h-4.683V14.597h-6.527v-4.235h6.527V0.598
		h4.683V31.536z M434.018,0h4.733v32.632h-4.733V0z"/>
	<path fill="#FFFFFF" d="M453.2,7.921v8.818h14.398v4.185H453.2v9.416h4.334c6.028,0,11.16-0.299,15.743-0.996l0.499,4.185
		c-5.381,0.848-10.264,1.047-17.438,1.047h-8.021V3.687h21.023v4.235H453.2z M478.558,45.934V20.924h-8.32V16.64h8.32V0h4.933
		v45.934H478.558z"/>
</g>
</svg>
